<?xml version="1.0" encoding="UTF-8"?>
<svg xmlns="http://www.w3.org/2000/svg" version="1.1" viewBox="0 0 75.9 12.7">
  <!-- Generator: Adobe Illustrator 28.7.1, SVG Export Plug-In . SVG Version: 1.2.0 Build 142)  -->
  <g>
    <g id="Layer_1">
      <g>
        <path d="M42.9,1.2h5.5v2.6c0,1.1-.2,2-.6,2.9-.4.9-1,1.6-1.6,2.3-.7.7-1.4,1.2-2.2,1.7-.3.2-.7.4-1,.5v.9c.5-.2,1.1-.5,1.6-.8.9-.5,1.6-1.1,2.3-1.8.7-.7,1.3-1.5,1.7-2.5,0-.2.2-.5.3-.7,0,.2.2.5.3.7.4.9,1,1.8,1.7,2.5.7.7,1.5,1.3,2.3,1.8.5.3,1,.6,1.5.8v-.9c-.3-.1-.6-.3-.9-.5-.8-.5-1.6-1-2.2-1.7-.7-.7-1.2-1.4-1.6-2.3-.4-.9-.6-1.8-.6-2.9V1.2h5.4V.5h-11.7v.8Z"/>
        <rect x="57.8" y=".1" width=".9" height="12.6"/>
        <path d="M75.1.1v5.4h-12.2V.1h-.8v12.6h13.9V.1h-.9ZM62.9,12v-5.7s12.2,0,12.2,0v5.7s-12.2,0-12.2,0Z"/>
        <path d="M12.7,2h2.9V0H.3v2h2.9v8.7H0v2h16v-2h-3.2V2ZM5.6,2h4.7v8.7h-4.7V2Z"/>
        <polygon points="21.9 0 17.5 0 17.5 2 21.9 2 21.9 7.6 17.5 7.6 17.5 9.6 21.9 9.6 21.9 12.7 24.4 12.7 24.4 0 22.5 0 21.9 0"/>
        <polygon points="29.8 0 27.4 0 27.4 10.7 27.4 10.9 27.4 12.6 39.9 12.6 39.9 10.7 29.8 10.7 29.8 0"/>
      </g>
    </g>
  </g>
</svg>