<?xml version="1.0" encoding="UTF-8"?>
<svg xmlns="http://www.w3.org/2000/svg" version="1.1" viewBox="0 0 75.9 12.7">
  <!-- Generator: Adobe Illustrator 28.7.1, SVG Export Plug-In . SVG Version: 1.2.0 Build 142)  -->
  <g>
    <g id="Layer_1">
      <g>
        <path d="M43,1.3h5.3s0,2.5,0,2.5c0,1.1-.2,1.9-.6,2.9-.4.9-1,1.6-1.6,2.3-.8.8-1.5,1.3-2.2,1.7-.3.2-.7.4-1,.5h0v1.1h.1c.5-.3,1.1-.6,1.6-.9.8-.4,1.5-1,2.3-1.8.8-.8,1.4-1.6,1.7-2.5h0c0-.1,0-.3.2-.5,0,.1.1.2.2.3,0,0,0,.1,0,.1.4.9,1,1.8,1.7,2.5.6.6,1.4,1.3,2.3,1.8.5.3,1,.6,1.5.8h.1c0,0,0-1.1,0-1.1h0c-.3-.1-.6-.3-.9-.5-.8-.5-1.6-1-2.2-1.7-.7-.7-1.2-1.4-1.6-2.3-.4-.9-.6-1.8-.6-2.9V1.3h5.4V.4h-11.9v.9Z"/>
        <rect x="57.7" y="0" width="1.1" height="12.8"/>
        <path d="M75,0v5.4h-12V0h-1v12.8h14.1V0h-1.1ZM63,11.9v-5.5h12v5.5h-12Z"/>
        <path d="M13.1,2.3h2.8V-.3H0v2.6h2.9v8.1H-.3v2.6h16.6v-2.6h-3.2V2.3ZM10,2.3v8.1h-4.1V2.3h4.1Z"/>
        <polygon points="17.2 2.3 21.6 2.3 21.6 7.3 17.2 7.3 17.2 9.9 21.6 9.9 21.6 13 24.7 13 24.7 -.3 17.2 -.3 17.2 2.3"/>
        <polygon points="30.1 -.3 27.1 -.3 27.1 12.9 40.2 12.9 40.2 10.4 30.1 10.4 30.1 -.3"/>
      </g>
    </g>
  </g>
</svg>